<mxfile host="app.diagrams.net" modified="2023-02-15T01:50:45.572Z" agent="5.0 (Windows NT 10.0; Win64; x64) AppleWebKit/537.36 (KHTML, like Gecko) Chrome/110.0.0.0 Safari/537.36" etag="xWaFqd1M_oV_7yJWDwyV" version="20.8.20" type="github">
  <diagram name="use case" id="RGhBczd1-5QyIVEWNTpK">
    <mxGraphModel dx="1499" dy="893" grid="1" gridSize="10" guides="1" tooltips="1" connect="1" arrows="1" fold="1" page="0" pageScale="1" pageWidth="827" pageHeight="1169" math="0" shadow="0">
      <root>
        <mxCell id="0" />
        <mxCell id="1" parent="0" />
        <mxCell id="Nyvx8eklCv7bJf_uWX2I-1" value="Actor" style="shape=umlActor;verticalLabelPosition=bottom;verticalAlign=top;html=1;outlineConnect=0;" vertex="1" parent="1">
          <mxGeometry x="940" y="370" width="30" height="60" as="geometry" />
        </mxCell>
        <mxCell id="Nyvx8eklCv7bJf_uWX2I-2" value="Actor" style="shape=umlActor;verticalLabelPosition=bottom;verticalAlign=top;html=1;outlineConnect=0;" vertex="1" parent="1">
          <mxGeometry x="200" y="410" width="30" height="60" as="geometry" />
        </mxCell>
        <mxCell id="Nyvx8eklCv7bJf_uWX2I-7" value="Actor" style="shape=umlActor;verticalLabelPosition=bottom;verticalAlign=top;html=1;outlineConnect=0;" vertex="1" parent="1">
          <mxGeometry x="1020" y="750" width="30" height="60" as="geometry" />
        </mxCell>
        <mxCell id="Nyvx8eklCv7bJf_uWX2I-8" value="" style="rounded=0;whiteSpace=wrap;html=1;fillColor=#dae8fc;strokeColor=#6c8ebf;" vertex="1" parent="1">
          <mxGeometry x="300" y="170" width="470" height="810" as="geometry" />
        </mxCell>
        <mxCell id="Nyvx8eklCv7bJf_uWX2I-10" value="&lt;font style=&quot;font-size: 16px;&quot;&gt;Sistem&lt;/font&gt;" style="text;html=1;strokeColor=none;fillColor=none;align=center;verticalAlign=middle;whiteSpace=wrap;rounded=0;" vertex="1" parent="1">
          <mxGeometry x="477.5" y="170" width="115" height="80" as="geometry" />
        </mxCell>
        <mxCell id="Nyvx8eklCv7bJf_uWX2I-11" value="Login" style="ellipse;whiteSpace=wrap;html=1;fontSize=16;" vertex="1" parent="1">
          <mxGeometry x="450" y="250" width="170" height="80" as="geometry" />
        </mxCell>
        <mxCell id="Nyvx8eklCv7bJf_uWX2I-12" value="Menampilkan halaman&amp;nbsp;&lt;br&gt;buka tutup lelang" style="ellipse;whiteSpace=wrap;html=1;fontSize=16;" vertex="1" parent="1">
          <mxGeometry x="450" y="530" width="170" height="80" as="geometry" />
        </mxCell>
        <mxCell id="Nyvx8eklCv7bJf_uWX2I-13" value="Menampilkan detail barang yang di lelang" style="ellipse;whiteSpace=wrap;html=1;fontSize=16;" vertex="1" parent="1">
          <mxGeometry x="450" y="630" width="170" height="80" as="geometry" />
        </mxCell>
        <mxCell id="Nyvx8eklCv7bJf_uWX2I-14" value="Menampilkan CRUD data barang" style="ellipse;whiteSpace=wrap;html=1;fontSize=16;" vertex="1" parent="1">
          <mxGeometry x="450" y="340" width="170" height="80" as="geometry" />
        </mxCell>
        <mxCell id="Nyvx8eklCv7bJf_uWX2I-15" value="Menampilkan barang yang di lelang" style="ellipse;whiteSpace=wrap;html=1;fontSize=16;" vertex="1" parent="1">
          <mxGeometry x="450" y="430" width="170" height="80" as="geometry" />
        </mxCell>
        <mxCell id="Nyvx8eklCv7bJf_uWX2I-16" value="Menampilkan laporan&amp;nbsp;&lt;br&gt;barang yang terlelang&amp;nbsp;" style="ellipse;whiteSpace=wrap;html=1;fontSize=16;" vertex="1" parent="1">
          <mxGeometry x="450" y="730" width="170" height="80" as="geometry" />
        </mxCell>
        <mxCell id="Nyvx8eklCv7bJf_uWX2I-17" value="Logout" style="ellipse;whiteSpace=wrap;html=1;fontSize=16;" vertex="1" parent="1">
          <mxGeometry x="450" y="840" width="170" height="80" as="geometry" />
        </mxCell>
      </root>
    </mxGraphModel>
  </diagram>
</mxfile>
